# xmcd
#
# Track frame offsets:
#	150
#	15762
#	46225
#	64565
#	90407
#	103375
#	115980
#	132202
#	147322
#	159630
#	168582
#	183242
#	204222
#	234155
#	248492
#	262380
#
# Disc length: 3635 seconds
#
# Revision: 1
# Processed by: cddbd v1.5.1PL0 Copyright (c) Steve Scherf et al.
# Submitted via: audiograbber 1.83.01
#
DISCID=cf0e3110
DTITLE=Various Artist - Best of Yesterday 2
DYEAR=1900
DGENRE=Oldies
TTITLE0=Glenn Miller - Chattanooga Choo Choo
TTITLE1=Louis Armstrong - On The Sunny Side Of The Street
TTITLE2=Little Richard - Let It Roll
TTITLE3=Fred Astaire - Cheek To Cheek
TTITLE4=Deanna Durbin - When April Sings
TTITLE5=The Platters - Washed Ashore
TTITLE6=Marilyn Monroe - Lazy
TTITLE7=Jerry Lee Lewis - Whole Lot Of Twistin'
TTITLE8=Sarah Vaughan - They Can't Take That Away From Me
TTITLE9=The Everly Brothers - When Will I Be Loved
TTITLE10=Judy Garland - Zing! Went The Strings Of My Heart
TTITLE11=Count Basie - The Legend
TTITLE12=Trini Lopez - Gotta Travel On - Down By The Riverside - Marianne - Whe
TTITLE12=n The Saints Go Marchin' In
TTITLE13=Nina Simone - Black Is The Colour
TTITLE14=Sidney Bechet - Tropical Mood Meringue
TTITLE15=Gene Vincent - B-I-Bickey-Bi, Bo-Bo Go
EXTD=
EXTT0=
EXTT1=
EXTT2=
EXTT3=
EXTT4=
EXTT5=
EXTT6=
EXTT7=
EXTT8=
EXTT9=
EXTT10=
EXTT11=
EXTT12=
EXTT13=
EXTT14=
EXTT15=
PLAYORDER=
